# xmcd CD database file
#
# Track frame offsets:
#	150
#	21924
#	36460
#	51666
#	68902
#	83573
#	98566
#
# Disc length: 1975 seconds
#
# Revision: 0
# Processed by: cddbd v1.5.2PL0 Copyright (c) Steve Scherf et al.
# Submitted via: CDex 1.51
#
DISCID=5907b507
DTITLE=Miss Lissa and Co. - Back To Your Mama
DYEAR=2012
DGENRE=Blues
TTITLE0=Mountain Mama Blues
TTITLE1=Tell Me
TTITLE2=In My Nature
TTITLE3=You Can't Take it With You
TTITLE4=Norton's Lament
TTITLE5=Back to Your Mama
TTITLE6=Ball and Chain
EXTD=YEAR: 2012
EXTT0=
EXTT1=
EXTT2=
EXTT3=
EXTT4=
EXTT5=
EXTT6=
PLAYORDER=
